<svg width="207" height="40" viewBox="0 0 207 40" fill="none" xmlns="http://www.w3.org/2000/svg">
<path d="M31.2725 22.5559L27.7646 25.954L24.2598 22.5559L27.7646 19.1578L31.2725 22.5559ZM39.777 14.3046L45.7831 20.1308L49.288 16.7327L39.777 7.51135L30.2659 16.7327L33.7708 20.1308L39.777 14.3046ZM51.7923 19.1578L48.2875 22.5559L51.7923 25.954L55.2942 22.5559L51.7923 19.1578ZM39.777 30.8071L33.7708 24.9839L30.2659 28.3791L39.777 37.6004L49.288 28.3791L45.7831 24.9839L39.777 30.8071ZM39.777 25.954L43.2818 22.5559L39.777 19.1578L36.2721 22.5559L39.777 25.954ZM76.766 26.2803V26.2332C76.766 24.0168 75.5532 22.9086 73.5795 22.1796C74.7922 21.5182 75.817 20.4806 75.817 18.6198V18.5728C75.817 15.9801 73.6765 14.3046 70.1989 14.3046H62.3039V30.8071H70.399C74.2404 30.8071 76.7721 29.2992 76.7721 26.2803H76.766ZM72.0969 19.2254C72.0969 20.4512 71.0509 20.9715 69.3985 20.9715H65.9513V17.4881H69.6471C71.2267 17.4881 72.103 18.0995 72.103 19.1842L72.0969 19.2254ZM73.0459 25.8276C73.0459 27.0534 72.0484 27.6178 70.393 27.6178H65.9513V23.9933H70.2778C72.2 23.9933 73.0519 24.6782 73.0519 25.7864L73.0459 25.8276ZM84.6337 30.8071V14.3046H80.8772V30.8071H84.6337ZM104.762 30.8071V14.3046H101.054V24.4666L93.0806 14.3046H89.6273V30.8071H93.3231V20.316L101.564 30.8071H104.762ZM125.504 30.8071L118.197 14.187H114.743L107.452 30.8071H111.269L112.83 27.1063H120.028L121.583 30.8071H125.504ZM118.697 23.8992H114.161L116.423 18.5493L118.697 23.8992ZM143.352 30.8071V14.3046H139.644V24.4666L131.667 14.3046H128.217V30.8071H131.91V20.316L140.154 30.8071H143.352ZM162.681 28.1439L160.301 25.8099C158.964 26.9858 157.772 27.7412 155.825 27.7412C152.909 27.7412 150.89 25.3896 150.89 22.5559V22.5088C150.89 19.681 152.957 17.3705 155.825 17.3705C157.526 17.3705 158.857 18.076 160.179 19.2313L162.553 16.5681C160.974 15.0601 159.054 14.0224 155.844 14.0224C150.617 14.0224 146.969 17.8644 146.969 22.5471V22.5941C146.969 27.3326 150.689 31.0805 155.698 31.0805C158.976 31.0893 160.919 29.9576 162.668 28.1439H162.681ZM178.659 30.8071V27.5737H169.405V24.1021H177.431V20.8686H169.405V17.5352H178.525V14.3017H165.685V30.8042L178.659 30.8071Z" fill="#F0B90B"/>
</svg>
