<svg width="208" height="40" viewBox="0 0 208 40" fill="none" xmlns="http://www.w3.org/2000/svg">
<path d="M66.2449 16.7431C60.816 16.7431 56.574 20.7388 56.574 26.0879C56.574 31.4369 60.7088 35.3984 66.2449 35.3984C71.781 35.3984 75.9877 31.3685 75.9877 26.0537C75.9877 20.773 71.8529 16.7431 66.2449 16.7431ZM66.2802 31.5421C63.1886 31.5421 60.9231 29.2142 60.9231 26.0879C60.9231 22.926 63.152 20.5994 66.2435 20.5994C69.3718 20.5994 71.6359 22.9615 71.6359 26.0879C71.6359 29.2142 69.3718 31.5421 66.2802 31.5421ZM77.1733 20.8072H79.8701V35.0512H84.184V17.0903H77.1733V20.8072ZM45.7175 20.5994C47.983 20.5994 49.7804 21.9541 50.4627 23.969H55.0289C54.2014 19.6616 50.5346 16.7431 45.7541 16.7431C40.3252 16.7431 36.0833 20.7388 36.0833 26.0879C36.0833 31.4369 40.218 35.3984 45.7541 35.3984C50.4275 35.3984 54.1661 32.4799 54.9936 28.137H50.4641C49.817 30.1519 48.0196 31.5421 45.7541 31.5421C42.6259 31.5421 40.4337 29.2142 40.4337 26.0879C40.4324 22.9273 42.5893 20.5994 45.7175 20.5994ZM159.139 24.3517L155.976 23.9006C154.466 23.6928 153.387 23.2062 153.387 22.0593C153.387 20.8085 154.79 20.1838 156.695 20.1838C158.78 20.1838 160.11 21.0518 160.398 22.4762H164.568C164.1 18.8633 161.224 16.7444 156.803 16.7444C152.237 16.7444 149.217 19.0027 149.217 22.1987C149.217 25.2553 151.195 27.0282 155.185 27.5833L158.348 28.0344C159.895 28.2422 160.757 28.8341 160.757 29.9454C160.757 31.3698 159.248 31.9604 157.163 31.9604C154.61 31.9604 153.172 30.9529 152.956 29.4246H148.714C149.11 32.9337 151.949 35.3997 157.126 35.3997C161.836 35.3997 164.963 33.3151 164.963 29.7363C164.963 26.5403 162.697 24.8726 159.139 24.3517ZM82.0271 9.69082C80.4453 9.69082 79.2583 10.8022 79.2583 12.3305C79.2583 13.8588 80.444 14.9702 82.0271 14.9702C83.6088 14.9702 84.7958 13.8588 84.7958 12.3305C84.7944 10.8022 83.6088 9.69082 82.0271 9.69082ZM145.335 23.2391C145.335 19.3486 142.89 16.7431 137.714 16.7431C132.825 16.7431 130.093 19.1408 129.553 22.8234H133.831C134.047 21.399 135.197 20.218 137.642 20.218C139.835 20.218 140.914 21.1557 140.914 22.3026C140.914 23.7967 138.936 24.1781 136.491 24.4215C133.184 24.7687 129.086 25.88 129.086 30.0493C129.086 33.2809 131.567 35.3642 135.521 35.3642C138.613 35.3642 140.554 34.1134 141.526 32.1327C141.669 33.9043 143.035 35.0512 144.941 35.0512H147.458V31.3343H145.336V23.2391H145.335ZM141.091 27.7556C141.091 30.1532 138.935 31.9249 136.31 31.9249C134.691 31.9249 133.325 31.2646 133.325 29.8757C133.325 28.1041 135.519 27.6175 137.532 27.4097C139.473 27.2361 140.552 26.8191 141.091 26.0195V27.7556ZM118.191 16.7431C115.782 16.7431 113.769 17.7164 112.331 19.3486V9.51721H108.017V35.0525H112.259V32.6903C113.697 34.3922 115.747 35.3997 118.191 35.3997C123.368 35.3997 127.287 31.4396 127.287 26.0892C127.287 20.7388 123.298 16.7431 118.191 16.7431ZM117.544 31.5421C114.453 31.5421 112.187 29.2142 112.187 26.0879C112.187 22.9615 114.488 20.5994 117.58 20.5994C120.708 20.5994 122.9 22.9273 122.9 26.0879C122.901 29.2155 120.636 31.5421 117.544 31.5421ZM97.7007 16.7431C94.8967 16.7431 93.0626 17.8545 91.9842 19.4183V17.0903H87.7056V35.0512H92.0195V25.2895C92.0195 22.5446 93.8169 20.5994 96.4771 20.5994C98.9582 20.5994 100.503 22.3013 100.503 24.7687V35.0525H104.817V24.457C104.819 19.9391 102.411 16.7431 97.7007 16.7431ZM185.525 25.4973C185.525 20.3561 181.643 16.7431 176.43 16.7431C170.894 16.7431 166.831 20.773 166.831 26.0879C166.831 31.6816 171.181 35.3984 176.502 35.3984C180.996 35.3984 184.519 32.8271 185.417 29.18H180.923C180.276 30.778 178.694 31.6816 176.572 31.6816C173.803 31.6816 171.718 30.0138 171.252 27.0953H185.524V25.4973H185.525ZM171.505 24.1084C172.189 21.6068 174.13 20.3916 176.359 20.3916C178.804 20.3916 180.673 21.7463 181.104 24.1084H171.505Z" fill="#0052FF"/>
</svg>
