<svg width="208" height="40" viewBox="0 0 208 40" fill="none" xmlns="http://www.w3.org/2000/svg">
<path d="M164.184 23.1598C163.336 22.5994 162.412 22.2258 161.487 21.7401C160.909 21.4413 160.292 21.1424 159.791 20.7314C158.944 20.0589 159.098 18.7139 160.023 18.1162C161.294 17.2942 163.414 17.7426 163.645 19.4238C163.645 19.4611 163.683 19.4985 163.722 19.4985H165.649C165.687 19.4985 165.726 19.4611 165.726 19.4238C165.61 18.2656 165.148 17.2942 164.3 16.6591C163.491 16.0613 162.566 15.7625 161.564 15.7625C156.477 15.7625 156.015 20.9929 158.751 22.6368C159.059 22.8236 161.757 24.1312 162.72 24.729C163.683 25.2894 163.953 26.3355 163.568 27.1574C163.182 27.9046 162.219 28.4277 161.256 28.353C160.177 28.2782 159.367 27.7178 159.059 26.8585C159.021 26.7091 158.982 26.4102 158.982 26.2608C158.982 26.2234 158.944 26.1861 158.905 26.1861H156.824C156.786 26.1861 156.747 26.2234 156.747 26.2608C156.747 27.7178 157.132 28.5398 158.134 29.287C159.098 29.9968 160.138 30.2957 161.256 30.2957C164.107 30.2957 165.571 28.7266 165.88 27.1201C166.111 25.5509 165.649 24.1312 164.184 23.1598Z" fill="#8F9CA9"/>
<path d="M73.3584 16.0612H72.4336H71.4317C71.3932 16.0612 71.3546 16.0985 71.3546 16.0985L69.6206 21.5905C69.5821 21.6653 69.505 21.6653 69.4665 21.5905L67.7324 16.0985C67.7324 16.0612 67.6939 16.0612 67.6553 16.0612H66.6534H65.7286H64.4955C64.457 16.0612 64.4185 16.0985 64.4185 16.1359V30.1462C64.4185 30.1835 64.457 30.2209 64.4955 30.2209H66.5764C66.6149 30.2209 66.6534 30.1835 66.6534 30.1462V19.4983C66.6534 19.4236 66.7691 19.3863 66.8076 19.461L68.5416 24.9904L68.6572 25.364C68.6572 25.4013 68.6958 25.4014 68.7343 25.4014H70.3527C70.3913 25.4014 70.4298 25.364 70.4298 25.364L70.5454 24.9904L72.2795 19.461C72.318 19.3863 72.4336 19.3863 72.4336 19.4983V30.1462C72.4336 30.1835 72.4721 30.2209 72.5107 30.2209H74.5915C74.63 30.2209 74.6686 30.1835 74.6686 30.1462V16.1359C74.6686 16.0985 74.63 16.0612 74.5915 16.0612H73.3584Z" fill="#8F9CA9"/>
<path d="M132.162 16.0612C132.123 16.0612 132.085 16.0985 132.085 16.0985L130.351 21.5905C130.312 21.6653 130.235 21.6653 130.197 21.5905L128.463 16.0985C128.463 16.0612 128.424 16.0612 128.386 16.0612H125.187C125.149 16.0612 125.11 16.0985 125.11 16.1359V30.1462C125.11 30.1835 125.149 30.2209 125.187 30.2209H127.268C127.307 30.2209 127.345 30.1835 127.345 30.1462V19.4983C127.345 19.4236 127.461 19.3863 127.499 19.461L129.233 24.9904L129.349 25.364C129.349 25.4013 129.387 25.4014 129.426 25.4014H131.044C131.083 25.4014 131.121 25.364 131.121 25.364L131.237 24.9904L132.971 19.461C133.01 19.3863 133.125 19.3863 133.125 19.4983V30.1462C133.125 30.1835 133.164 30.2209 133.202 30.2209H135.283C135.322 30.2209 135.36 30.1835 135.36 30.1462V16.1359C135.36 16.0985 135.322 16.0612 135.283 16.0612H132.162Z" fill="#8F9CA9"/>
<path d="M105.188 16.0612H101.296H99.2151H95.2846C95.2461 16.0612 95.2075 16.0985 95.2075 16.1359V17.8918C95.2075 17.9292 95.2461 17.9666 95.2846 17.9666H99.0995V30.1462C99.0995 30.1835 99.138 30.2209 99.1766 30.2209H101.257C101.296 30.2209 101.335 30.1835 101.335 30.1462V17.9666H105.149C105.188 17.9666 105.226 17.9292 105.226 17.8918V16.1359C105.265 16.0985 105.226 16.0612 105.188 16.0612Z" fill="#8F9CA9"/>
<path d="M117.519 30.2209H119.407C119.445 30.2209 119.484 30.1836 119.484 30.1089L115.554 16.0612C115.554 16.0239 115.515 16.0239 115.476 16.0239H114.744H113.473H112.74C112.702 16.0239 112.663 16.0612 112.663 16.0612L108.733 30.1089C108.733 30.1462 108.771 30.2209 108.81 30.2209H110.698C110.737 30.2209 110.775 30.1836 110.775 30.1836L111.931 26.0739C111.931 26.0365 111.97 26.0365 112.008 26.0365H116.209C116.247 26.0365 116.286 26.0739 116.286 26.0739L117.442 30.1836C117.442 30.1836 117.48 30.2209 117.519 30.2209ZM112.509 24.0191L114.051 18.527C114.089 18.4523 114.166 18.4523 114.205 18.527L115.746 24.0191C115.746 24.0564 115.708 24.1311 115.669 24.1311H112.625C112.548 24.1311 112.509 24.0564 112.509 24.0191Z" fill="#8F9CA9"/>
<path d="M149.965 30.2209H151.853C151.892 30.2209 151.93 30.1836 151.93 30.1089L148 16.0612C148 16.0239 147.961 16.0239 147.922 16.0239H147.19H145.919H145.187C145.148 16.0239 145.109 16.0612 145.109 16.0612L141.179 30.1089C141.179 30.1462 141.217 30.2209 141.256 30.2209H143.144C143.183 30.2209 143.221 30.1836 143.221 30.1836L144.377 26.0739C144.377 26.0365 144.416 26.0365 144.454 26.0365H148.655C148.693 26.0365 148.732 26.0739 148.732 26.0739L149.888 30.1836C149.888 30.1836 149.926 30.2209 149.965 30.2209ZM144.955 24.0191L146.497 18.527C146.535 18.4523 146.612 18.4523 146.651 18.527L148.192 24.0191C148.192 24.0564 148.154 24.1311 148.115 24.1311H145.071C144.994 24.1311 144.955 24.0564 144.955 24.0191Z" fill="#8F9CA9"/>
<path d="M83.1461 28.1287V23.7948C83.1461 23.7575 83.1847 23.7201 83.2232 23.7201H88.8107C88.8492 23.7201 88.8878 23.6827 88.8878 23.6454V21.8894C88.8878 21.8521 88.8492 21.8147 88.8107 21.8147H83.2232C83.1847 21.8147 83.1461 21.7774 83.1461 21.74V18.0413C83.1461 18.0039 83.1847 17.9666 83.2232 17.9666H89.5428C89.5814 17.9666 89.6199 17.9292 89.6199 17.8918V16.1359C89.6199 16.0985 89.5814 16.0612 89.5428 16.0612H83.1461H80.9882C80.9497 16.0612 80.9111 16.0985 80.9111 16.1359V17.9666V21.8521V23.7575V28.2408V30.1462C80.9111 30.1835 80.9497 30.2209 80.9882 30.2209H83.1461H89.8126C89.8511 30.2209 89.8896 30.1835 89.8896 30.1462V28.3155C89.8896 28.2781 89.8511 28.2408 89.8126 28.2408H83.1847C83.1847 28.2034 83.1461 28.166 83.1461 28.1287Z" fill="#8F9CA9"/>
<path d="M183.297 30.0715L176.053 22.8235C176.014 22.7862 176.014 22.7488 176.053 22.7114L182.565 16.1359C182.603 16.0986 182.565 16.0239 182.526 16.0239H179.868C179.829 16.0239 179.829 16.0239 179.829 16.0612L174.28 21.6653C174.241 21.7027 174.164 21.6653 174.164 21.628V16.1733C174.164 16.1359 174.126 16.0986 174.087 16.0986H171.968C171.929 16.0986 171.891 16.1359 171.891 16.1733V30.1836C171.891 30.2209 171.929 30.2583 171.968 30.2583H174.049C174.087 30.2583 174.126 30.2209 174.126 30.1836V24.0191C174.126 23.9443 174.203 23.907 174.241 23.9817L180.484 30.2583L180.523 30.2957H183.181C183.297 30.2209 183.336 30.1089 183.297 30.0715Z" fill="#8F9CA9"/>
<path d="M50.122 8.51434L37.4827 17.6304L39.8333 12.2504L50.122 8.51434Z" fill="#E17726" stroke="#E17726" stroke-width="0.385345" stroke-linecap="round" stroke-linejoin="round"/>
<path d="M20.9126 8.51434L33.4748 17.7051L31.2398 12.2504L20.9126 8.51434Z" fill="#E27625" stroke="#E27625" stroke-width="0.385345" stroke-linecap="round" stroke-linejoin="round"/>
<path d="M45.5749 29.6231L42.1838 34.6294L49.4284 36.5722L51.4707 29.7352L45.5749 29.6231Z" fill="#E27625" stroke="#E27625" stroke-width="0.385345" stroke-linecap="round" stroke-linejoin="round"/>
<path d="M19.6025 29.7352L21.6449 36.5722L28.8508 34.6294L25.4983 29.6231L19.6025 29.7352Z" fill="#E27625" stroke="#E27625" stroke-width="0.385345" stroke-linecap="round" stroke-linejoin="round"/>
<path d="M28.4655 21.1796L26.4617 24.1311L33.5906 24.43L33.3594 16.9578L28.4655 21.1796Z" fill="#E27625" stroke="#E27625" stroke-width="0.385345" stroke-linecap="round" stroke-linejoin="round"/>
<path d="M42.6075 21.1796L37.6366 16.8831L37.4824 24.43L44.6113 24.1311L42.6075 21.1796Z" fill="#E27625" stroke="#E27625" stroke-width="0.385345" stroke-linecap="round" stroke-linejoin="round"/>
<path d="M28.8508 34.6295L33.1667 32.612L29.4288 29.7726L28.8508 34.6295Z" fill="#E27625" stroke="#E27625" stroke-width="0.385345" stroke-linecap="round" stroke-linejoin="round"/>
<path d="M37.9065 32.612L42.1838 34.6295L41.6058 29.7726L37.9065 32.612Z" fill="#E27625" stroke="#E27625" stroke-width="0.385345" stroke-linecap="round" stroke-linejoin="round"/>
<path d="M42.1841 34.6294L37.9067 32.6119L38.2536 35.3019L38.215 36.4601L42.1841 34.6294Z" fill="#D5BFB2" stroke="#D5BFB2" stroke-width="0.385345" stroke-linecap="round" stroke-linejoin="round"/>
<path d="M28.8511 34.6294L32.8587 36.4601L32.8201 35.3019L33.1669 32.6119L28.8511 34.6294Z" fill="#D5BFB2" stroke="#D5BFB2" stroke-width="0.385345" stroke-linecap="round" stroke-linejoin="round"/>
<path d="M32.9357 27.9793L29.3521 26.9705L31.8568 25.8497L32.9357 27.9793Z" fill="#233447" stroke="#233447" stroke-width="0.385345" stroke-linecap="round" stroke-linejoin="round"/>
<path d="M38.1379 27.9793L39.1784 25.8497L41.7216 26.9705L38.1379 27.9793Z" fill="#233447" stroke="#233447" stroke-width="0.385345" stroke-linecap="round" stroke-linejoin="round"/>
<path d="M28.851 34.6295L29.4675 29.623L25.4985 29.7351L28.851 34.6295Z" fill="#CC6228" stroke="#CC6228" stroke-width="0.385345" stroke-linecap="round" stroke-linejoin="round"/>
<path d="M41.606 29.623L42.184 34.6295L45.575 29.7351L41.606 29.623Z" fill="#CC6228" stroke="#CC6228" stroke-width="0.385345" stroke-linecap="round" stroke-linejoin="round"/>
<path d="M44.6116 24.1312L37.4827 24.4301L38.1378 27.9794L39.1782 25.8498L41.7215 26.9706L44.6116 24.1312Z" fill="#CC6228" stroke="#CC6228" stroke-width="0.385345" stroke-linecap="round" stroke-linejoin="round"/>
<path d="M29.352 26.9704L31.8567 25.8496L32.9357 27.9791L33.5908 24.4299L26.4619 24.131L29.352 26.9704Z" fill="#CC6228" stroke="#CC6228" stroke-width="0.385345" stroke-linecap="round" stroke-linejoin="round"/>
<path d="M26.4619 24.1312L29.429 29.7727L29.3519 26.9706L26.4619 24.1312Z" fill="#E27525" stroke="#E27525" stroke-width="0.385345" stroke-linecap="round" stroke-linejoin="round"/>
<path d="M41.7216 26.9706L41.606 29.7727L44.6116 24.1312L41.7216 26.9706Z" fill="#E27525" stroke="#E27525" stroke-width="0.385345" stroke-linecap="round" stroke-linejoin="round"/>
<path d="M33.5909 24.43L32.9358 27.9792L33.745 32.201L33.9377 26.6343L33.5909 24.43Z" fill="#E27525" stroke="#E27525" stroke-width="0.385345" stroke-linecap="round" stroke-linejoin="round"/>
<path d="M37.4826 24.43L37.1357 26.6343L37.2899 32.201L38.1376 27.9792L37.4826 24.43Z" fill="#E27525" stroke="#E27525" stroke-width="0.385345" stroke-linecap="round" stroke-linejoin="round"/>
<path d="M38.138 27.9792L37.2903 32.201L37.9068 32.6119L41.6061 29.7726L41.7217 26.9705L38.138 27.9792Z" fill="#F5841F" stroke="#F5841F" stroke-width="0.385345" stroke-linecap="round" stroke-linejoin="round"/>
<path d="M29.3521 26.9705L29.4291 29.7726L33.1669 32.6119L33.7449 32.201L32.9357 27.9792L29.3521 26.9705Z" fill="#F5841F" stroke="#F5841F" stroke-width="0.385345" stroke-linecap="round" stroke-linejoin="round"/>
<path d="M38.2149 36.4601L38.2535 35.3019L37.9066 35.0404H33.1284L32.8201 35.3019L32.8586 36.4601L28.8511 34.6295L30.2383 35.7502L33.0899 37.6556H37.9452L40.7967 35.7502L42.184 34.6295L38.2149 36.4601Z" fill="#C0AC9D" stroke="#C0AC9D" stroke-width="0.385345" stroke-linecap="round" stroke-linejoin="round"/>
<path d="M37.9069 32.6121L37.2903 32.2011H33.7451L33.1671 32.6121L32.8203 35.302L33.1286 35.0405H37.9069L38.2537 35.302L37.9069 32.6121Z" fill="#8F9CA9" stroke="#8F9CA9" stroke-width="0.385345" stroke-linecap="round" stroke-linejoin="round"/>
<path d="M50.6616 18.2281L51.7406 13.1845L50.1222 8.5144L37.9067 17.3315L42.6079 21.1796L49.2359 23.0476L50.7002 21.4037L50.0836 20.9554L51.0855 20.0588L50.3148 19.461L51.3167 18.7138L50.6616 18.2281Z" fill="#763E1A" stroke="#763E1A" stroke-width="0.385345" stroke-linecap="round" stroke-linejoin="round"/>
<path d="M19.333 13.1845L20.412 18.2281L19.7184 18.7138L20.7202 19.461L19.9496 20.0588L20.99 20.9554L20.3349 21.4037L21.7992 23.0476L28.4657 21.1796L33.1669 17.3315L20.9129 8.5144L19.333 13.1845Z" fill="#763E1A" stroke="#763E1A" stroke-width="0.385345" stroke-linecap="round" stroke-linejoin="round"/>
<path d="M49.2358 23.0477L42.6079 21.1796L44.6116 24.1311L41.606 29.7726L45.575 29.7353H51.4708L49.2358 23.0477Z" fill="#F5841F" stroke="#F5841F" stroke-width="0.385345" stroke-linecap="round" stroke-linejoin="round"/>
<path d="M28.4654 21.1796L21.799 23.0477L19.6025 29.7353H25.4983L29.4288 29.7726L26.4616 24.1311L28.4654 21.1796Z" fill="#F5841F" stroke="#F5841F" stroke-width="0.385345" stroke-linecap="round" stroke-linejoin="round"/>
<path d="M37.4828 24.4299L37.9067 17.3315L39.8334 12.2504H31.2402L33.1669 17.3315L33.5908 24.4299L33.745 26.6716V32.2009H37.2901V26.6716L37.4828 24.4299Z" fill="#F5841F" stroke="#F5841F" stroke-width="0.385345" stroke-linecap="round" stroke-linejoin="round"/>
</svg>
